<svg xmlns="http://www.w3.org/2000/svg" viewBox="0 0 154 170">
	<g id="Layer_1" data-name="Layer 1">
		<path
			d="M108.24,40.57,89.42,68.5a2,2,0,0,0,3,2.63l18.52-16a.74.74,0,0,1,1.24.56v50.29a.75.75,0,0,1-1.32.48l-56-67A9.59,9.59,0,0,0,47.54,36H45.59A9.59,9.59,0,0,0,36,45.59v70.82A9.59,9.59,0,0,0,45.59,126h0a9.59,9.59,0,0,0,8.17-4.57L72.58,93.5a2,2,0,0,0-3-2.63l-18.52,16a.74.74,0,0,1-1.24-.56V56.07a.75.75,0,0,1,1.32-.48l56,67a9.59,9.59,0,0,0,7.33,3.4h2a9.59,9.59,0,0,0,9.59-9.59V45.59A9.59,9.59,0,0,0,116.41,36h0A9.59,9.59,0,0,0,108.24,40.57Z"
			style="fill: rgb(255, 255, 255);"></path>
	</g>
</svg>
